<svg width="200" height="58" viewBox="0 0 200 58" fill="none" xmlns="http://www.w3.org/2000/svg">
<path fill-rule="evenodd" clip-rule="evenodd" d="M16.4861 28.0407L17.0671 27.094L19.4686 23.1826C19.8395 22.5583 20.1788 22.005 20.9098 21.6666C23.3895 20.5181 25.2318 22.8483 26.2616 24.7472C26.4024 25.0067 26.5276 25.2583 26.6376 25.4917H26.6379L35.1249 39.4715L35.61 40.2628C36.2189 41.1717 36.7529 42.2582 37.3011 43.1047C38.8389 45.4786 39.3002 46.4921 43.2813 46.2531C46.3168 46.0706 49.3897 46.2845 52.4355 46.2098C56.1367 46.1195 55.7149 43.3945 54.3998 41.1416L49.5608 33.1885L48.3858 31.2573L37.1823 12.861L36.7751 12.196L31.5293 3.62444C30.7086 2.21492 29.9082 0.147963 27.9819 0.0104755C25.2047 -0.187979 24.1675 2.46371 22.4364 5.38028L12.8047 21.2471L10.2493 25.4566L3.10748 37.2143C2.94903 37.368 2.28276 38.282 1.60765 39.3972C0.810343 40.7149 0 42.3138 0 43.273C0 44.9686 1.65961 46.2938 3.34089 46.3069C5.02791 46.3205 5.59931 45.4049 6.23545 44.5139L16.4861 28.0407Z" fill="white"/>
<path fill-rule="evenodd" clip-rule="evenodd" d="M28.7158 28.9555C31.6887 27.3555 34.8047 25.8826 38.1085 24.5785C38.4241 24.4545 38.7422 24.3308 39.0615 24.2094C40.3258 23.7286 41.7879 23.2301 43.2274 22.8311L45.1332 25.9603L45.0303 26.0028C41.4542 27.4815 36.9298 30.2596 31.7445 33.944L28.7158 28.9555Z" fill="#1E2F67"/>
<path fill-rule="evenodd" clip-rule="evenodd" d="M2.10156 38.6119C2.38649 38.2024 3.02531 37.2943 3.10734 37.2147L3.8029 36.0693C4.45431 36.8444 5.18765 38.0602 5.63216 37.7475C6.24668 37.3156 5.43688 39.9554 6.13604 39.6526C7.08878 39.24 8.63735 38.7374 9.8162 38.7595L6.52415 44.05L5.93754 44.9299C5.88376 44.8604 2.31271 39.0815 2.10156 38.6119Z" fill="#1E2F67"/>
<path fill-rule="evenodd" clip-rule="evenodd" d="M5.48738 41.3305C3.94286 39.2129 2.57544 37.2398 1.81592 34.8118C1.18748 32.8034 1.03768 32.9489 2.56764 31.8591C4.76905 30.2915 7.05947 28.5146 9.34505 26.906C9.9602 26.4736 10.4655 26.1214 11.1657 25.818C11.9617 25.4724 12.4083 25.5054 12.7121 26.1612C13.0043 26.7927 13.221 27.6084 13.5432 28.3316C13.8294 28.9738 14.1161 29.6165 14.4021 30.259C14.86 31.2859 15.0098 31.9591 15.9392 32.6788C16.5008 33.1136 17.0738 33.2974 17.6632 33.1414C18.3755 32.9526 24.1179 28.943 25.3574 28.2335C25.6916 28.0425 26.0276 27.8524 26.3653 27.6644C29.7046 25.805 33.2212 24.1025 36.9807 22.6186C37.2959 22.4943 37.6141 22.3704 37.9338 22.249C39.8959 21.5024 42.3352 20.7146 44.4278 20.3188C44.9448 20.2213 45.4171 20.1659 45.8393 20.1481C48.9974 20.0147 49.3472 21.9665 44.5877 23.7708C44.3637 23.8557 44.1345 23.9465 43.9022 24.0425C38.5062 26.2735 30.9518 31.4632 22.224 38.2601C19.91 40.1768 17.5962 42.0934 15.282 44.0103C13.2626 45.4 11.1897 46.0052 8.99922 44.8643C7.43889 44.0526 6.49514 42.7118 5.48738 41.3305Z" fill="#A1C93A"/>
<path fill-rule="evenodd" clip-rule="evenodd" d="M62.1913 11.8059C63.3668 11.8059 64.3855 11.4227 65.2475 10.6562C66.1096 9.88967 66.5406 8.85489 66.5406 7.55183C66.5406 6.21044 66.1096 5.1565 65.2475 4.38999C64.3855 3.62349 63.3668 3.24023 62.1913 3.24023C60.9766 3.24023 59.9383 3.62349 59.0762 4.38999C58.2142 5.1565 57.7832 6.21044 57.7832 7.55183C57.7832 8.85489 58.2142 9.88967 59.0762 10.6562C59.9383 11.4227 60.9766 11.8059 62.1913 11.8059ZM65.7765 46.4137V16.3475H58.6648V46.4137H65.7765ZM77.0578 22.3262V46.4137H69.9461V17.7847C71.3175 17.2865 73.0317 16.817 75.0888 16.3762C77.1459 15.9355 79.4283 15.7151 81.936 15.7151C82.4062 15.7151 82.9548 15.7439 83.5817 15.8013C84.2086 15.8588 84.8356 15.9355 85.4625 16.0313C86.0894 16.1271 86.6967 16.2421 87.2845 16.3762C87.8722 16.5104 88.3424 16.6349 88.6951 16.7499L87.4608 22.6137C86.8731 22.422 86.06 22.2208 85.0217 22.01C83.9833 21.7993 82.7785 21.6939 81.4071 21.6939C80.6234 21.6939 79.7908 21.7705 78.9092 21.9238C78.0275 22.0771 77.4104 22.2112 77.0578 22.3262ZM101.798 47.2185C103.993 47.2185 106.001 46.8352 107.823 46.0687C109.645 45.3022 111.202 44.2291 112.495 42.8494C113.788 41.4697 114.787 39.8026 115.493 37.848C116.198 35.8934 116.551 33.728 116.551 31.3518C116.551 28.9757 116.188 26.8199 115.463 24.8844C114.738 22.949 113.73 21.2914 112.436 19.9117C111.143 18.532 109.586 17.4685 107.764 16.7212C105.942 15.9738 103.953 15.6001 101.798 15.6001C99.6433 15.6001 97.6646 15.9738 95.8621 16.7212C94.0597 17.4685 92.5022 18.532 91.1896 19.9117C89.877 21.2914 88.8582 22.949 88.1333 24.8844C87.4085 26.8199 87.046 28.9757 87.046 31.3518C87.046 33.728 87.4085 35.8934 88.1333 37.848C88.8582 39.8026 89.8672 41.4697 91.1602 42.8494C92.4532 44.2291 94.001 45.3022 95.8034 46.0687C97.6058 46.8352 99.6041 47.2185 101.798 47.2185ZM96.303 38.5378C97.6156 40.3008 99.4474 41.1823 101.798 41.1823C104.149 41.1823 105.981 40.3008 107.294 38.5378C108.606 36.7749 109.263 34.3795 109.263 31.3518C109.263 28.3625 108.606 25.9959 107.294 24.2521C105.981 22.5083 104.149 21.6364 101.798 21.6364C99.4474 21.6364 97.6156 22.5083 96.303 24.2521C94.9903 25.9959 94.334 28.3625 94.334 31.3518C94.334 34.3795 94.9903 36.7749 96.303 38.5378Z" fill="white"/>
<path fill-rule="evenodd" clip-rule="evenodd" d="M126.127 45.3786V57.0487H119.016V17.3245C120.465 16.9413 122.248 16.5772 124.364 16.2322C126.48 15.8873 128.713 15.7148 131.064 15.7148C133.494 15.7148 135.668 16.0789 137.588 16.8071C139.508 17.5353 141.144 18.5797 142.496 19.9402C143.848 21.3008 144.886 22.9487 145.611 24.8842C146.336 26.8196 146.698 28.9946 146.698 31.409C146.698 33.7086 146.395 35.8165 145.787 37.7327C145.18 39.649 144.308 41.297 143.172 42.6767C142.036 44.0564 140.615 45.1295 138.911 45.896C137.206 46.6625 135.276 47.0458 133.121 47.0458C131.672 47.0458 130.339 46.8733 129.125 46.5284C127.91 46.1834 126.911 45.8002 126.127 45.3786ZM128.625 40.5209C129.664 40.885 130.77 41.067 131.946 41.067C134.532 41.067 136.423 40.2047 137.618 38.4801C138.813 36.7554 139.41 34.4367 139.41 31.524C139.41 28.4197 138.695 26.0052 137.265 24.2805C135.835 22.5559 133.533 21.6936 130.359 21.6936C129.693 21.6936 128.997 21.7223 128.273 21.7798C127.548 21.8373 126.833 21.9619 126.127 22.1535V39.3424C126.754 39.764 127.587 40.1568 128.625 40.5209Z" fill="#A1C93A"/>
<path fill-rule="evenodd" clip-rule="evenodd" d="M166.884 46.5578C164.671 46.8836 162.173 47.0465 159.391 47.0465C157.549 47.0465 155.864 46.874 154.336 46.5291C152.808 46.1842 151.505 45.6284 150.428 44.8619C149.35 44.0954 148.508 43.099 147.9 41.8726C147.293 40.6462 146.989 39.1323 146.989 37.331C146.989 35.6064 147.332 34.15 148.018 32.9619C148.704 31.7739 149.634 30.8061 150.81 30.0588C151.985 29.3115 153.347 28.7749 154.894 28.4491C156.442 28.1234 158.058 27.9605 159.743 27.9605C160.527 27.9605 161.35 28.0084 162.212 28.1042C163.074 28.2 163.995 28.3629 164.974 28.5929V27.4431C164.974 26.6383 164.876 25.8718 164.68 25.1436C164.484 24.4154 164.142 23.7735 163.652 23.2177C163.162 22.662 162.515 22.2309 161.712 21.9243C160.909 21.6177 159.9 21.4644 158.685 21.4644C157.04 21.4644 155.531 21.5793 154.16 21.8093C152.788 22.0392 151.672 22.3075 150.81 22.6141L149.928 16.9803C150.829 16.6737 152.142 16.3671 153.866 16.0605C155.59 15.7539 157.431 15.6006 159.391 15.6006C161.742 15.6006 163.72 15.888 165.327 16.4629C166.933 17.0378 168.217 17.8426 169.177 18.8774C170.137 19.9122 170.822 21.1673 171.234 22.6429C171.645 24.1184 171.851 25.7376 171.851 27.5006V45.7243C170.754 45.9542 169.098 46.2321 166.884 46.5578ZM155.688 40.5791C156.746 41.2115 158.176 41.5276 159.978 41.5276C162.173 41.5276 163.838 41.4127 164.974 41.1827V33.4793C164.582 33.3644 164.014 33.2494 163.27 33.1344C162.525 33.0194 161.702 32.9619 160.801 32.9619C160.018 32.9619 159.224 33.0194 158.421 33.1344C157.618 33.2494 156.893 33.4602 156.246 33.7668C155.6 34.0734 155.081 34.5045 154.689 35.0602C154.297 35.616 154.101 36.3154 154.101 37.1586C154.101 38.8065 154.63 39.9467 155.688 40.5791Z" fill="#A1C93A"/>
<path fill-rule="evenodd" clip-rule="evenodd" d="M176.02 57.1641C177.666 57.1641 179.116 56.982 180.37 56.6179C181.624 56.2539 182.76 55.6694 183.779 54.8646C184.797 54.0597 185.718 53.0441 186.541 51.8177C187.364 50.5913 188.167 49.1158 188.951 47.3911C193.143 38.1164 196.827 27.7686 200 16.3477H192.654C191.752 19.9502 190.753 23.6774 189.656 27.5291C188.559 31.3807 187.383 35.0121 186.13 38.423C185.385 36.775 184.641 34.9929 183.896 33.0766C183.152 31.1604 182.446 29.2345 181.78 27.2991C181.114 25.3637 180.497 23.457 179.929 21.5791C179.361 19.7011 178.881 17.9573 178.489 16.3477H170.907C172.514 21.9431 174.345 27.232 176.402 32.2143C178.46 37.1966 180.605 41.7956 182.838 46.0114C182.055 47.8127 181.144 49.1445 180.105 50.0068C179.067 50.8692 177.627 51.3003 175.785 51.3003C174.414 51.3003 173.023 51.032 171.612 50.4955L170.319 56.0718C170.868 56.3401 171.681 56.5892 172.758 56.8192C173.836 57.0491 174.923 57.1641 176.02 57.1641Z" fill="#A1C93A"/>
</svg>
