<svg width="500" height="500" xmlns="http://www.w3.org/2000/svg" xmlns:xlink="http://www.w3.org/1999/xlink"><defs><linearGradient x1="50%" y1="-3.399%" x2="50%" y2="83.141%" id="b"><stop stop-color="#FFF" stop-opacity=".59" offset=".034%"/><stop stop-color="#AD1AAC" stop-opacity=".32" offset="100%"/></linearGradient><path id="a" d="M0 0h500v500H0z"/></defs><g fill="none" fill-rule="evenodd"><use fill="#FFF" xlink:href="#a"/><path fill-opacity=".32" fill="url(#b)" d="m250 16 202.65 117v234L250 484 47.35 367V133z"/><path fill="#E1ACE1" d="m150 256 49.082 124.227L232 485.25H245L194.674 256z"/><path d="M140.117 256c-.523 43.654-8.145 102.427-9.363 105.149-.812 1.814-28.838 24.883-84.078 69.209l8.953 9.58c65.179-38.003 99.276-59.539 102.292-64.607C162.445 367.728 177.174 297.763 189 256h-48.883Z" fill="#E1ACE1"/><path d="m32.574 434.491 16.73-12.732 13.498 16.087c1.039 12.127 5.054 25.728 12.046 40.803l-3.064 2.571-24.426-29.11 1.19-17.969-9.546 8.01-6.428-7.66ZM224 497l1-21h21c9.958 7 22.958 12.667 39 17v4h-38l-13-12.462V497h-10Z" fill="#87189D"/><path fill="#BE9CC2" d="m183 474.433 61.804-6.708L199 256h-55.356z"/><path fill-opacity=".1" fill="#000" d="m183 474.433 61.804-6.708L199 256h-55.356z"/><path d="M59.46 414.9 100 462.886c42.7-46.636 67.594-77.066 74.683-91.29 7.088-14.224 13.46-52.756 19.116-115.596h-62.32c-3.09 55.284-5.173 84.212-6.248 86.785-1.076 2.572-23 26.611-65.771 72.115Z" fill="#BE9CC2"/><path d="m208 227.617 36.235-15.913c6.347-6.325 12.476-11.132 18.388-14.422 1.767-.563 4.787-.733 1.565 3.973-3.222 4.706-6.4 9.801-5.112 11.45 1.288 1.65 5.017-.17 6.49 2.511.983 1.788-5.304 3.927-18.859 6.417l-27.137 20.806L208 227.617Z" fill="#E1ACE1"/><path d="m128 263 109.46-2.415c-39.479-41.765-59.219-77.806-59.219-108.124L155.014 149c-18.254 29.358-23.41 65.505-27.014 114Z" fill="#FFF"/><path d="M110.508 240c20.747-56.508 34.16-84.174 40.24-82.998 14.195 2.746 7.613 31.767-19.748 87.064-20.608 38.405-31.66 58.76-33.155 61.064-3.365 5.185-.225 14.687.934 19.691-7.275 1.694-4.406-9.256-13.612-6.97-8.403 2.087-15.528 7.442-23.363.22-.963-.888-1.669-3.664 1.616-5.087 8.183-3.547 20.272-10.188 22.232-12.766 2.674-3.516 10.959-23.589 24.856-60.218Z" fill="#E1ACE1"/><g fill="#87189D"><path d="M422 186.427v105.298a7 7 0 0 1-7.018 6.983H337.79v-26.664a18.064 18.064 0 0 0 10.378-12.02c.11-.416.21-.796.292-1.153.193-.748.41-1.576.553-2.046.333-.36.912-.948 1.438-1.48l.851-.86a18.275 18.275 0 0 0 4.617-17.362c-.108-.412-.21-.793-.292-1.146-.202-.764-.427-1.609-.538-2.094.11-.491.339-1.345.544-2.12.09-.345.19-.716.292-1.12a18.26 18.26 0 0 0-4.57-17.333l-.807-.822c-.541-.55-1.14-1.155-1.477-1.52-.143-.48-.36-1.319-.558-2.076-.092-.351-.19-.731-.293-1.14a18.038 18.038 0 0 0-12.61-12.778h-.033l-1.096-.293c-.714-.193-1.5-.406-1.974-.55-.36-.344-.942-.938-1.462-1.476-.246-.251-.506-.52-.793-.81a17.801 17.801 0 0 0-17.388-4.769h-.015l-1.102.292c-.702.193-1.462.407-1.957.524v-31.91a7 7 0 0 1 6.948-6.982h67.836v32.749a4.678 4.678 0 0 0 4.678 4.678H422Z"/><path d="m419.953 179.702-28.626-28.655a7.018 7.018 0 0 0-4.97-2.047h-1.784v32.749a4.678 4.678 0 0 0 4.678 4.678H422v-1.784c0-1.853-.736-3.63-2.047-4.941Zm-73.1 48.564c.796-3-.046-6.198-2.216-8.418-4.345-4.421-3.924-3.687-5.514-9.737a8.646 8.646 0 0 0-6.056-6.14c-5.93-1.617-5.216-1.2-9.558-5.617a8.456 8.456 0 0 0-8.27-2.278c-5.94 1.62-5.104 1.617-11.037 0a8.462 8.462 0 0 0-8.27 2.254c-4.359 4.439-3.654 4.006-9.555 5.617a8.635 8.635 0 0 0-6.055 6.164c-1.597 6.064-1.17 5.301-5.518 9.728a8.816 8.816 0 0 0-2.22 8.427c1.594 6.056 1.586 5.202 0 11.231a8.807 8.807 0 0 0 2.217 8.415c4.345 4.418 3.924 3.687 5.52 9.728a8.632 8.632 0 0 0 6.056 6.161c4.181 1.14 3.369.877 4.629 1.462v33.445l18.713-9.357 18.714 9.357v-33.442c1.26-.585.444-.322 4.631-1.462a8.635 8.635 0 0 0 6.053-6.16c1.6-6.065 1.17-5.302 5.52-9.729a8.807 8.807 0 0 0 2.217-8.415c-1.588-6.038-1.59-5.187 0-11.234Zm-37.134 23.658c-10.335 0-18.713-8.378-18.713-18.713 0-10.336 8.378-18.714 18.713-18.714s18.714 8.378 18.714 18.714c0 10.335-8.379 18.713-18.714 18.713Z" opacity=".4"/></g><path d="M191.143 101.134c5.795 10.801 5.107 38.199-2.383 40.13-3.08.793-9.748-1.237-16.43-5.39L174 151h-21l7.697-25.19c-4.295-5.28-7.14-11.665-6.64-18.785 1.501-21.4 31.292-16.692 37.086-5.891Z" fill="#E1ACE1"/><path d="M192.621 101.248c-.604-1.704-1.519-3.241-2.526-4.69a35.474 35.474 0 0 0-6.68-7.234C178.83 85.59 173.27 84 167.496 84c-8.086 0-20.105 5.324-23.858 12.558s-5.286 9.996-1.96 26.119c3.328 16.123-6.024 10.455-7.063 20.806-.923 9.182 7.064 10.485 0 21.517-7.065 11.032-10.986 9.12-11.552 20.604-.57 11.578 8.59 22.226 11.552 20.697 2.961-1.53-2.3-7.853 2.03-9.995 4.331-2.142 4.312 1.25 9.466 6.853 5.155 5.603 31.387-1.87 31.387-6.853 0-1.267-16.304.6-18.33-13.025-.86-5.777 8.926-16.21 10.676-21.54 2.231-6.793-7.061-13.705-8.73-18.258-2.98-8.125 1.946-13.67 1.946-15.483 0-1.504 1.178-3.918 0-5.323-.467-.557-1.348-.783-1.947-1.11-.697-.381-1.404-.874-1.946-1.495-2.185-2.51.022-7.616 2.77-8.458 4.08-1.25 4.994 4.511 7.907 6.001 1.675.857 3.428-.314 4.683-1.51 1.68-1.602 2.827-3.724 3.816-5.884.815-1.778 1.573-3.582 2.404-5.352.387-.826 1.73-3.162 1.056-4.097 2.923-.582 6.179.63 8.696 2.221 1.04.657 1.834 1.382 2.389 2.543.119.248.378.987.703 1.018.605.056.379-.682.32-1.033-.239-1.398-.82-2.95-1.289-4.273Z" fill="#AD1AAC"/></g></svg>
