<svg width="108" height="131" viewBox="0 0 108 131" fill="none" xmlns="http://www.w3.org/2000/svg">
<path d="M29.6522 48.3736L59.7971 18.5185C59.7971 18.5185 77.7681 33.591 78.6377 34.4606C79.5072 35.3301 85.8553 35.62 87.3333 34.4606C88.8113 33.3011 94 30.4026 94 30.4026C94 30.4026 66.4638 6.6345 62.9855 2.28666C59.5072 -2.06118 54 1.12724 54 1.12724L14 40.5475V75.3301L17.7681 78.2287H27.0435L29.6522 75.3301V48.3736Z" fill="#FBFBFB"/>
<rect x="48.2029" y="50.4026" width="8.69565" height="9.27536" rx="3" fill="#FBFBFB"/>
<rect x="48.2029" y="63.1562" width="8.69565" height="9.27536" rx="3" fill="#FBFBFB"/>
<rect x="62.6957" y="50.4026" width="8.69565" height="9.27536" rx="3" fill="#FBFBFB"/>
<rect x="62.6957" y="63.1562" width="8.69565" height="9.27536" rx="3" fill="#FBFBFB"/>
<path d="M1.88203 104V125H6.38203V116.33H14.722V125H19.222V104H14.722V112.43H6.38203V104H1.88203ZM37.35 121.43H36.87C36.51 121.43 36.27 121.37 36.12 121.22C35.94 121.1 35.88 120.83 35.88 120.44V115.01C35.88 113.21 35.28 111.8 34.08 110.84C32.88 109.88 31.2 109.4 29.04 109.4C26.94 109.4 25.29 109.85 24.03 110.72C22.77 111.59 22.05 112.82 21.93 114.38H26.01C26.1 113.81 26.4 113.36 26.91 113C27.39 112.67 28.05 112.49 28.83 112.49C29.7 112.49 30.39 112.7 30.93 113.12C31.44 113.54 31.71 114.08 31.71 114.77V115.52H28.65C26.34 115.52 24.57 115.97 23.37 116.87C22.17 117.77 21.57 119.03 21.57 120.65C21.57 122.09 22.08 123.23 23.13 124.01C24.18 124.79 25.56 125.18 27.3 125.18C28.44 125.18 29.43 124.97 30.27 124.49C31.08 124.04 31.77 123.38 32.34 122.48C32.28 124.16 33.24 125 35.19 125H37.35V121.43ZM31.71 118.34V118.64C31.68 119.72 31.35 120.56 30.72 121.19C30.06 121.82 29.19 122.12 28.11 122.12C27.39 122.12 26.85 121.97 26.43 121.64C26.01 121.34 25.83 120.89 25.83 120.35C25.83 119.72 26.07 119.24 26.55 118.88C27.03 118.52 27.72 118.34 28.62 118.34H31.71ZM51.2564 110.36C50.1764 109.73 48.9464 109.4 47.5664 109.4C45.6464 109.4 44.0864 110.12 42.9164 111.53V104H38.6864V125H42.3764L42.7964 122.9C43.3064 123.62 43.9664 124.16 44.7764 124.58C45.5564 125 46.5164 125.18 47.5964 125.18C48.9464 125.18 50.1764 124.85 51.2564 124.19C52.3364 123.53 53.1764 122.6 53.7764 121.4C54.3764 120.2 54.7064 118.82 54.7064 117.26C54.7064 115.67 54.3764 114.29 53.7764 113.09C53.1764 111.89 52.3364 110.99 51.2564 110.36ZM49.3664 120.5C48.6464 121.34 47.7464 121.73 46.6064 121.73C45.4664 121.73 44.5364 121.34 43.8764 120.5C43.1864 119.69 42.8564 118.61 42.8564 117.26C42.8564 115.94 43.1864 114.89 43.8764 114.08C44.5364 113.27 45.4664 112.85 46.6064 112.85C47.7464 112.85 48.6464 113.27 49.3664 114.08C50.0564 114.92 50.4164 115.97 50.4164 117.29C50.4164 118.61 50.0564 119.69 49.3664 120.5ZM57.1155 113.15C56.4555 114.35 56.1555 115.73 56.1555 117.32C56.1555 118.91 56.4855 120.29 57.1455 121.49C57.8055 122.69 58.7655 123.59 60.0255 124.22C61.2855 124.88 62.7555 125.18 64.4955 125.18C65.8155 125.18 66.9855 124.97 68.0055 124.49C69.0255 124.01 69.8355 123.38 70.4655 122.54C71.0655 121.73 71.4555 120.8 71.6355 119.78H67.4655C67.2855 120.5 66.8955 121.07 66.3255 121.43C65.7555 121.79 65.0355 121.97 64.1955 121.97C63.1155 121.97 62.2455 121.67 61.6455 121.01C61.0155 120.38 60.6555 119.51 60.5655 118.37V118.25H71.7555C71.8155 117.83 71.8755 117.35 71.8755 116.81C71.8455 115.31 71.4855 114.02 70.8255 112.91C70.1655 111.8 69.2355 110.93 68.0355 110.33C66.8355 109.73 65.4855 109.4 63.9255 109.4C62.3655 109.4 61.0155 109.73 59.8455 110.39C58.6755 111.05 57.7755 111.95 57.1155 113.15ZM67.6455 115.49H60.6555C60.7755 114.59 61.1355 113.9 61.7655 113.36C62.3955 112.82 63.1755 112.55 64.1055 112.55C65.0655 112.55 65.8455 112.82 66.4755 113.33C67.1055 113.84 67.4955 114.56 67.6455 115.49ZM74.2472 113.15C73.5872 114.35 73.2872 115.73 73.2872 117.32C73.2872 118.91 73.6172 120.29 74.2772 121.49C74.9372 122.69 75.8972 123.59 77.1572 124.22C78.4172 124.88 79.8872 125.18 81.6272 125.18C82.9472 125.18 84.1172 124.97 85.1372 124.49C86.1572 124.01 86.9672 123.38 87.5972 122.54C88.1972 121.73 88.5872 120.8 88.7672 119.78H84.5972C84.4172 120.5 84.0272 121.07 83.4572 121.43C82.8872 121.79 82.1672 121.97 81.3272 121.97C80.2472 121.97 79.3772 121.67 78.7772 121.01C78.1472 120.38 77.7872 119.51 77.6972 118.37V118.25H88.8872C88.9472 117.83 89.0072 117.35 89.0072 116.81C88.9772 115.31 88.6172 114.02 87.9572 112.91C87.2972 111.8 86.3672 110.93 85.1672 110.33C83.9672 109.73 82.6172 109.4 81.0572 109.4C79.4972 109.4 78.1472 109.73 76.9772 110.39C75.8072 111.05 74.9072 111.95 74.2472 113.15ZM84.7772 115.49H77.7872C77.9072 114.59 78.2672 113.9 78.8972 113.36C79.5272 112.82 80.3072 112.55 81.2372 112.55C82.1972 112.55 82.9772 112.82 83.6072 113.33C84.2372 113.84 84.6272 114.56 84.7772 115.49ZM103.589 110.39C102.509 109.73 101.309 109.4 99.9288 109.4C98.8488 109.4 97.9188 109.61 97.1088 110.03C96.2988 110.45 95.6388 111.02 95.1288 111.71L94.7088 109.58H91.0188V131H95.2488V123.05C96.3588 124.49 97.9188 125.18 99.8988 125.18C101.279 125.18 102.509 124.88 103.589 124.22C104.669 123.56 105.509 122.66 106.109 121.46C106.709 120.29 107.039 118.91 107.039 117.32C107.039 115.76 106.709 114.35 106.109 113.15C105.509 111.95 104.669 111.05 103.589 110.39ZM101.699 120.5C100.979 121.34 100.079 121.73 98.9388 121.73C97.7988 121.73 96.8688 121.34 96.2088 120.5C95.5188 119.69 95.1888 118.61 95.1888 117.26C95.1888 115.94 95.5188 114.89 96.2088 114.08C96.8688 113.27 97.7988 112.85 98.9388 112.85C100.079 112.85 100.979 113.27 101.699 114.08C102.389 114.89 102.749 115.94 102.749 117.26C102.749 118.58 102.389 119.66 101.699 120.5Z" fill="#FBFBFB"/>
</svg>
